<?xml version="1.0" encoding="UTF-8"?>
<svg id="Capa_1" data-name="Capa 1" xmlns="http://www.w3.org/2000/svg" viewBox="0 0 611.12 165.95">
  <defs>
    <style>
      .cls-1 {
        fill: #fff;
        stroke-width: 0px;
      }
    </style>
  </defs>
  <rect class="cls-1" x="42.8" y="19.95" width="23.26" height="8.11"/>
  <rect class="cls-1" x="32.05" y="24.31" width="44.77" height="11.4"/>
  <polygon class="cls-1" points="149.45 14.16 124.63 14.16 99.81 14.16 94.22 30.78 124.63 30.78 155.04 30.78 149.45 14.16"/>
  <path class="cls-1" d="M69.62,91.19c0-16.32,6.93-30.99,17.96-41.18H10.06v90.17h88.35c-17.15-9.43-28.79-27.84-28.79-48.99Z"/>
  <path class="cls-1" d="M227.49,30.59v19.42h-65.81c11.04,10.19,17.96,24.87,17.96,41.18,0,21.16-11.64,39.56-28.79,48.99h76.64v11.61h0V30.59h0Z"/>
  <path class="cls-1" d="M150.85,140.18c-7.79,4.29-16.73,6.72-26.22,6.72s-18.43-2.44-26.22-6.72H10.06v11.61h217.43v-11.61h-76.64Z"/>
  <path class="cls-1" d="M124.63,35.48c14.27,0,27.27,5.51,37.05,14.53h65.81v-19.42H10.06v19.42h77.52c9.78-9.03,22.78-14.53,37.05-14.53Z"/>
  <path class="cls-1" d="M143.98,50.01c-5.86-2.83-12.43-4.42-19.35-4.42s-13.49,1.59-19.35,4.42c-15.18,7.33-25.67,23.01-25.67,41.18,0,25.19,20.16,45.6,45.03,45.6s45.03-20.42,45.03-45.6c0-18.17-10.49-33.85-25.67-41.18Z"/>
  <path class="cls-1" d="M201.48,45.62h0c-.83,0-1.5-.68-1.5-1.52v-6.59c0-.84.68-1.52,1.5-1.52h0c.83,0,1.5.68,1.5,1.52v6.59c0,.84-.68,1.52-1.5,1.52Z"/>
  <path class="cls-1" d="M207.98,45.62h0c-.83,0-1.5-.68-1.5-1.52v-6.59c0-.84.68-1.52,1.5-1.52h0c.83,0,1.5.68,1.5,1.52v6.59c0,.84-.68,1.52-1.5,1.52Z"/>
  <path class="cls-1" d="M214.48,45.62h0c-.83,0-1.5-.68-1.5-1.52v-6.59c0-.84.68-1.52,1.5-1.52h0c.83,0,1.5.68,1.5,1.52v6.59c0,.84-.68,1.52-1.5,1.52Z"/>
  <g>
    <path class="cls-1" d="M287.19,131.27c1.57-2.41,2.36-5.27,2.36-8.59s-.79-6.26-2.36-8.71c-1.57-2.45-3.8-4.33-6.68-5.63-2.88-1.3-6.31-1.95-10.28-1.95h-19.88v44.04h12.3v-11.7h6.71l7.89,11.7h13.17l-9.4-13.87c2.63-1.27,4.69-3.03,6.17-5.29ZM275.23,117.9c1.26,1.13,1.9,2.73,1.9,4.78s-.63,3.59-1.9,4.72c-1.26,1.13-3.18,1.7-5.75,1.7h-6.83v-12.9h6.83c2.57,0,4.48.57,5.75,1.7Z"/>
    <polygon class="cls-1" points="308.5 132.75 327.82 132.75 327.82 123.43 308.5 123.43 308.5 116.01 330.43 116.01 330.43 106.38 296.32 106.38 296.32 150.43 331.23 150.43 331.23 140.8 308.5 140.8 308.5 132.75"/>
    <path class="cls-1" d="M368.23,108.33c-2.88-1.3-6.31-1.95-10.28-1.95h-19.88v44.04h12.3v-11.51h7.58c3.98,0,7.4-.66,10.28-1.98,2.88-1.32,5.1-3.2,6.68-5.63,1.57-2.43,2.36-5.31,2.36-8.62s-.79-6.26-2.36-8.71c-1.57-2.45-3.8-4.33-6.68-5.63ZM362.95,127.4c-1.26,1.13-3.18,1.7-5.75,1.7h-6.83v-12.9h6.83c2.57,0,4.48.57,5.75,1.7,1.26,1.13,1.89,2.73,1.89,4.78s-.63,3.59-1.89,4.72Z"/>
    <path class="cls-1" d="M423.06,112.02c-2.15-2.08-4.69-3.68-7.61-4.81-2.92-1.13-6.14-1.7-9.66-1.7s-6.69.57-9.63,1.7c-2.94,1.13-5.5,2.74-7.67,4.81-2.17,2.08-3.86,4.5-5.06,7.27-1.2,2.77-1.8,5.81-1.8,9.12s.6,6.36,1.8,9.12c1.2,2.77,2.89,5.19,5.06,7.27,2.17,2.08,4.73,3.68,7.67,4.81,2.94,1.13,6.15,1.7,9.63,1.7s6.74-.57,9.66-1.7c2.92-1.13,5.46-2.73,7.61-4.78,2.15-2.06,3.84-4.48,5.06-7.27,1.22-2.79,1.83-5.84,1.83-9.15s-.61-6.35-1.83-9.12c-1.22-2.77-2.91-5.19-5.06-7.27ZM416.63,133.56c-.6,1.55-1.43,2.88-2.48,4-1.06,1.11-2.3,1.96-3.73,2.55-1.43.59-2.97.88-4.63.88s-3.2-.29-4.63-.88c-1.43-.59-2.67-1.44-3.73-2.55-1.06-1.11-1.89-2.44-2.49-4-.6-1.55-.9-3.27-.9-5.16s.3-3.66.9-5.19c.6-1.53,1.43-2.85,2.49-3.96,1.06-1.11,2.3-1.96,3.73-2.55,1.43-.59,2.97-.88,4.63-.88s3.2.29,4.63.88c1.43.59,2.67,1.44,3.73,2.55,1.06,1.11,1.88,2.43,2.48,3.96.6,1.53.9,3.26.9,5.19s-.3,3.61-.9,5.16Z"/>
    <path class="cls-1" d="M473.25,131.27c1.57-2.41,2.36-5.27,2.36-8.59s-.79-6.26-2.36-8.71c-1.57-2.45-3.8-4.33-6.68-5.63-2.88-1.3-6.31-1.95-10.28-1.95h-19.88v44.04h12.3v-11.7h6.71l7.89,11.7h13.17l-9.4-13.87c2.63-1.27,4.69-3.03,6.17-5.29ZM461.29,117.9c1.26,1.13,1.89,2.73,1.89,4.78s-.63,3.59-1.89,4.72c-1.26,1.13-3.18,1.7-5.75,1.7h-6.83v-12.9h6.83c2.57,0,4.48.57,5.75,1.7Z"/>
    <polygon class="cls-1" points="477.66 116.26 491.02 116.26 491.02 150.43 503.32 150.43 503.32 116.26 516.62 116.26 516.62 106.38 477.66 106.38 477.66 116.26"/>
    <polygon class="cls-1" points="261.75 45.33 296.75 89.34 303.58 89.34 303.58 30.27 295.25 30.27 295.25 74.29 260.25 30.27 253.42 30.27 253.42 89.34 261.75 89.34 261.75 45.33"/>
    <path class="cls-1" d="M327.24,74.57h31.01l6.41,14.77h8.75l-26.5-59.07h-8.25l-26.41,59.07h8.58l6.41-14.77ZM342.74,38.84l12.58,28.99h-25.16l12.58-28.99Z"/>
    <polygon class="cls-1" points="390.74 89.34 398.99 89.34 398.99 37.61 418.99 37.61 418.99 30.27 370.74 30.27 370.74 37.61 390.74 37.61 390.74 89.34"/>
    <path class="cls-1" d="M469.27,83.35c4.36-4.44,6.54-10.94,6.54-19.49V30.27h-8.08v33.25c0,6.58-1.43,11.39-4.29,14.43-2.86,3.04-6.93,4.56-12.21,4.56s-9.26-1.52-12.12-4.56c-2.86-3.04-4.29-7.85-4.29-14.43V30.27h-8.33v33.59c0,8.55,2.19,15.05,6.58,19.49,4.39,4.44,10.42,6.67,18.08,6.67s13.76-2.22,18.12-6.67Z"/>
    <path class="cls-1" d="M501.23,71.37h14.42c1.28,0,2.52-.05,3.7-.15l12.54,18.13h9.08l-13.84-19.78c.54-.2,1.08-.41,1.59-.64,3.61-1.63,6.39-3.98,8.33-7.05,1.94-3.07,2.92-6.74,2.92-11.01s-.97-7.96-2.92-11.05c-1.95-3.09-4.72-5.46-8.33-7.09-3.61-1.63-7.97-2.45-13.08-2.45h-22.75v59.07h8.33v-17.97ZM527.52,41.07c2.75,2.31,4.12,5.57,4.12,9.79s-1.37,7.5-4.12,9.83c-2.75,2.33-6.79,3.5-12.12,3.5h-14.17v-26.58h14.17c5.33,0,9.37,1.15,12.12,3.46Z"/>
    <polygon class="cls-1" points="595.8 82 561.8 82 561.8 62.93 591.05 62.93 591.05 55.76 561.8 55.76 561.8 37.61 594.63 37.61 594.63 30.27 553.47 30.27 553.47 89.34 595.8 89.34 595.8 82"/>
    <path class="cls-1" d="M587.89,151.76h13.17l-9.4-13.87c2.63-1.27,4.69-3.03,6.17-5.29,1.57-2.41,2.36-5.27,2.36-8.59s-.79-6.26-2.36-8.71c-1.57-2.45-3.8-4.33-6.68-5.63-2.88-1.3-6.31-1.95-10.28-1.95h-19.88v44.04h12.3v-11.7h6.71l7.89,11.7ZM585.87,119.23c1.26,1.13,1.89,2.73,1.89,4.78s-.63,3.59-1.89,4.72c-1.26,1.13-3.18,1.7-5.75,1.7h-6.83v-12.9h6.83c2.57,0,4.48.57,5.75,1.7Z"/>
    <polygon class="cls-1" points="532.73 133.41 552.05 133.41 552.05 124.1 532.73 124.1 532.73 116.68 554.66 116.68 554.66 107.05 520.56 107.05 520.56 151.09 555.47 151.09 555.47 141.47 532.73 141.47 532.73 133.41"/>
  </g>
</svg>