<?xml version="1.0" encoding="UTF-8"?>
<svg id="Capa_1" data-name="Capa 1" xmlns="http://www.w3.org/2000/svg" viewBox="0 0 504.88 144">
  <defs>
    <style>
      .cls-1 {
        fill: #fff;
        stroke-width: 0px;
      }
    </style>
  </defs>
  <g>
    <path class="cls-1" d="M23.33,48.59c1.52-2.69,3.59-4.79,6.21-6.31,2.62-1.52,5.53-2.28,8.73-2.28,3.76,0,7.04.91,9.84,2.72,2.8,1.81,4.85,4.39,6.13,7.72h-5.39c-.96-2.08-2.33-3.68-4.13-4.8-1.8-1.12-3.95-1.68-6.45-1.68s-4.57.56-6.48,1.68c-1.91,1.12-3.41,2.71-4.5,4.77-1.09,2.06-1.63,4.48-1.63,7.25s.54,5.14,1.63,7.2c1.09,2.06,2.59,3.65,4.5,4.77,1.91,1.12,4.07,1.68,6.48,1.68s4.66-.55,6.45-1.66c1.8-1.1,3.17-2.7,4.13-4.77h5.39c-1.29,3.3-3.33,5.85-6.13,7.64-2.8,1.8-6.08,2.7-9.84,2.7-3.2,0-6.11-.75-8.73-2.25-2.62-1.5-4.69-3.59-6.21-6.26-1.52-2.67-2.28-5.69-2.28-9.05s.76-6.39,2.28-9.08Z"/>
    <path class="cls-1" d="M87.48,40.45v34.47h-4.5v-15.63h-17.56v15.63h-4.5v-34.47h4.5v15.13h17.56v-15.13h4.5Z"/>
    <path class="cls-1" d="M115.52,67.26h-15.04l-2.77,7.67h-4.75l12.46-34.28h5.19l12.41,34.28h-4.75l-2.77-7.67ZM114.23,63.6l-6.23-17.41-6.23,17.41h12.46Z"/>
    <path class="cls-1" d="M146.63,74.93l-8.21-14.1h-5.44v14.1h-4.5v-34.47h11.13c2.6,0,4.81.45,6.6,1.34,1.8.89,3.14,2.09,4.03,3.61.89,1.52,1.34,3.25,1.34,5.19,0,2.37-.68,4.47-2.05,6.28-1.37,1.81-3.42,3.02-6.16,3.61l8.66,14.44h-5.39ZM132.98,57.22h6.63c2.44,0,4.27-.6,5.49-1.81,1.22-1.2,1.83-2.81,1.83-4.82s-.6-3.63-1.8-4.75c-1.2-1.12-3.04-1.68-5.51-1.68h-6.63v13.06Z"/>
    <path class="cls-1" d="M163.05,71.27h12.07v3.66h-16.57v-34.47h4.5v30.81Z"/>
    <path class="cls-1" d="M186.79,73.02c-2.64-1.5-4.72-3.59-6.26-6.28-1.53-2.69-2.3-5.71-2.3-9.08s.77-6.39,2.3-9.08c1.53-2.69,3.62-4.78,6.26-6.28,2.64-1.5,5.56-2.25,8.75-2.25s6.17.75,8.8,2.25c2.64,1.5,4.71,3.59,6.23,6.26,1.52,2.67,2.28,5.7,2.28,9.1s-.76,6.43-2.28,9.1c-1.52,2.67-3.59,4.76-6.23,6.26-2.64,1.5-5.57,2.25-8.8,2.25s-6.12-.75-8.75-2.25ZM202.05,69.68c1.93-1.12,3.45-2.72,4.55-4.8,1.1-2.08,1.66-4.48,1.66-7.22s-.55-5.19-1.66-7.25c-1.11-2.06-2.61-3.65-4.53-4.77-1.91-1.12-4.09-1.68-6.53-1.68s-4.62.56-6.53,1.68c-1.91,1.12-3.42,2.71-4.53,4.77-1.1,2.06-1.66,4.48-1.66,7.25s.55,5.14,1.66,7.22c1.1,2.08,2.62,3.68,4.55,4.8,1.93,1.12,4.1,1.68,6.5,1.68s4.57-.56,6.5-1.68Z"/>
    <path class="cls-1" d="M240.01,40.45v3.66h-9.4v30.81h-4.5v-30.81h-9.45v-3.66h23.35Z"/>
    <path class="cls-1" d="M266.76,40.45v3.66h-9.4v30.81h-4.5v-30.81h-9.45v-3.66h23.35Z"/>
    <path class="cls-1" d="M276.8,44.11v11.52h12.56v3.71h-12.56v11.87h14.05v3.71h-18.55v-34.52h18.55v3.71h-14.05Z"/>
  </g>
  <g>
    <path class="cls-1" d="M340.92,40.21v34.72h-8.46v-20.82l-7.77,20.82h-6.83l-7.81-20.87v20.87h-8.46v-34.72h9.99l9.74,24.04,9.64-24.04h9.94Z"/>
    <path class="cls-1" d="M368.61,68.79h-12.96l-2.08,6.13h-8.85l12.56-34.72h9.79l12.56,34.72h-8.95l-2.08-6.13ZM366.44,62.26l-4.3-12.71-4.25,12.71h8.56Z"/>
    <path class="cls-1" d="M389.19,74.04c-2.01-.82-3.62-2.04-4.82-3.66-1.2-1.62-1.84-3.56-1.9-5.84h9c.13,1.29.58,2.27,1.34,2.94.76.68,1.75,1.01,2.97,1.01s2.24-.29,2.97-.87c.73-.58,1.09-1.38,1.09-2.4,0-.86-.29-1.57-.87-2.13-.58-.56-1.29-1.02-2.13-1.38-.84-.36-2.04-.77-3.59-1.24-2.24-.69-4.07-1.38-5.49-2.08-1.42-.69-2.64-1.71-3.66-3.07-1.02-1.35-1.53-3.12-1.53-5.29,0-3.23,1.17-5.76,3.51-7.59,2.34-1.83,5.39-2.74,9.15-2.74s6.91.91,9.25,2.74c2.34,1.83,3.59,4.38,3.76,7.64h-9.15c-.07-1.12-.48-2-1.24-2.65-.76-.64-1.73-.96-2.92-.96-1.02,0-1.85.27-2.47.82-.63.54-.94,1.33-.94,2.35,0,1.12.53,2,1.58,2.62,1.06.63,2.7,1.3,4.95,2.03,2.24.76,4.06,1.48,5.47,2.18,1.4.69,2.61,1.7,3.64,3.02,1.02,1.32,1.53,3.02,1.53,5.09s-.5,3.78-1.51,5.39c-1.01,1.62-2.47,2.9-4.38,3.86-1.91.96-4.17,1.43-6.78,1.43s-4.81-.41-6.83-1.24Z"/>
    <path class="cls-1" d="M421.31,73c-2.72-1.52-4.88-3.64-6.48-6.36-1.6-2.72-2.4-5.78-2.4-9.17s.8-6.45,2.4-9.15c1.6-2.7,3.76-4.81,6.48-6.33,2.72-1.52,5.71-2.27,8.98-2.27s6.26.76,8.98,2.27c2.72,1.52,4.86,3.63,6.43,6.33,1.57,2.7,2.35,5.75,2.35,9.15s-.79,6.45-2.37,9.17c-1.58,2.72-3.73,4.84-6.43,6.36-2.7,1.52-5.69,2.27-8.95,2.27s-6.26-.76-8.98-2.27ZM436.94,64.79c1.66-1.85,2.5-4.29,2.5-7.32s-.83-5.51-2.5-7.34c-1.67-1.83-3.88-2.75-6.65-2.75s-5.04.91-6.7,2.72c-1.67,1.81-2.5,4.27-2.5,7.37s.83,5.51,2.5,7.34c1.66,1.83,3.9,2.75,6.7,2.75s4.99-.92,6.65-2.77Z"/>
    <path class="cls-1" d="M483.8,74.93h-8.46l-14.15-21.42v21.42h-8.46v-34.72h8.46l14.15,21.51v-21.51h8.46v34.72Z"/>
  </g>
  <g>
    <path class="cls-1" d="M306.63,89.72c1.1-1.99,2.6-3.54,4.51-4.65,1.9-1.11,4.03-1.67,6.37-1.67,2.86,0,5.31.68,7.34,2.03,2.04,1.36,3.52,3.27,4.45,5.73h-3c-.73-1.73-1.85-3.09-3.35-4.07-1.5-.98-3.32-1.46-5.44-1.46-1.88,0-3.57.44-5.07,1.32-1.5.88-2.68,2.14-3.54,3.79s-1.28,3.56-1.28,5.73.43,4.08,1.28,5.71c.85,1.64,2.03,2.89,3.54,3.77,1.5.88,3.19,1.32,5.07,1.32,2.12,0,3.94-.48,5.44-1.45,1.5-.96,2.62-2.3,3.35-4.01h3c-.93,2.44-2.42,4.34-4.47,5.68-2.05,1.34-4.49,2.01-7.33,2.01-2.34,0-4.47-.56-6.37-1.67-1.9-1.11-3.41-2.66-4.51-4.63-1.1-1.98-1.65-4.23-1.65-6.74s.55-4.77,1.65-6.76Z"/>
    <path class="cls-1" d="M338.08,108.33c-1.5-.84-2.69-2.04-3.55-3.59-.87-1.55-1.3-3.36-1.3-5.44s.44-3.89,1.32-5.44c.88-1.55,2.07-2.75,3.59-3.59,1.51-.84,3.21-1.26,5.09-1.26s3.58.42,5.11,1.26c1.53.84,2.72,2.04,3.59,3.59.87,1.55,1.3,3.36,1.3,5.44s-.44,3.86-1.32,5.42c-.88,1.56-2.09,2.77-3.63,3.61-1.54.84-3.25,1.26-5.13,1.26s-3.57-.42-5.07-1.26ZM346.82,106.46c1.12-.6,2.03-1.5,2.73-2.71s1.04-2.69,1.04-4.45-.34-3.24-1.03-4.45c-.68-1.21-1.59-2.11-2.71-2.71-1.12-.6-2.34-.9-3.66-.9s-2.54.3-3.66.9c-1.12.6-2.02,1.5-2.69,2.71-.67,1.21-1.01,2.69-1.01,4.45s.34,3.24,1.01,4.45c.67,1.21,1.56,2.11,2.67,2.71,1.11.6,2.33.9,3.65.9s2.54-.3,3.66-.9Z"/>
    <path class="cls-1" d="M360.48,82.19v27.11h-2.56v-27.11h2.56Z"/>
    <path class="cls-1" d="M369.99,108.33c-1.5-.84-2.69-2.04-3.55-3.59-.87-1.55-1.3-3.36-1.3-5.44s.44-3.89,1.32-5.44c.88-1.55,2.07-2.75,3.59-3.59,1.51-.84,3.21-1.26,5.09-1.26s3.58.42,5.11,1.26c1.53.84,2.72,2.04,3.59,3.59.87,1.55,1.3,3.36,1.3,5.44s-.44,3.86-1.32,5.42c-.88,1.56-2.09,2.77-3.63,3.61-1.54.84-3.25,1.26-5.13,1.26s-3.57-.42-5.07-1.26ZM378.72,106.46c1.12-.6,2.03-1.5,2.73-2.71s1.04-2.69,1.04-4.45-.34-3.24-1.03-4.45c-.68-1.21-1.59-2.11-2.71-2.71-1.12-.6-2.34-.9-3.66-.9s-2.54.3-3.66.9c-1.12.6-2.02,1.5-2.69,2.71-.67,1.21-1.01,2.69-1.01,4.45s.34,3.24,1.01,4.45c.67,1.21,1.56,2.11,2.67,2.71,1.11.6,2.33.9,3.65.9s2.54-.3,3.66-.9Z"/>
    <path class="cls-1" d="M419.36,91.15c1.48,1.48,2.22,3.62,2.22,6.43v11.72h-2.53v-11.43c0-2.17-.53-3.83-1.58-4.98s-2.48-1.72-4.29-1.72-3.38.62-4.51,1.87c-1.12,1.25-1.69,3.05-1.69,5.42v10.84h-2.53v-11.43c0-2.17-.53-3.83-1.58-4.98s-2.49-1.72-4.32-1.72-3.38.62-4.51,1.87c-1.12,1.25-1.68,3.05-1.68,5.42v10.84h-2.56v-20h2.56v3.44c.63-1.25,1.54-2.19,2.71-2.84,1.17-.65,2.48-.97,3.92-.97,1.73,0,3.25.42,4.56,1.25s2.25,2.05,2.84,3.66c.54-1.59,1.46-2.8,2.77-3.64,1.31-.84,2.79-1.26,4.45-1.26,2.34,0,4.26.74,5.73,2.22Z"/>
    <path class="cls-1" d="M432.85,90.32c1.38-.88,3.01-1.32,4.89-1.32s3.47.42,4.91,1.26c1.44.84,2.57,2.04,3.39,3.59s1.23,3.35,1.23,5.4-.41,3.86-1.23,5.42c-.82,1.56-1.95,2.77-3.41,3.63-1.45.86-3.08,1.28-4.89,1.28-1.9,0-3.55-.43-4.93-1.3-1.38-.87-2.39-2-3.02-3.39v4.4h-2.53v-27.11h2.53v11.54c.66-1.39,1.68-2.53,3.06-3.41ZM443.69,94.96c-.65-1.21-1.53-2.13-2.66-2.77-1.12-.63-2.39-.95-3.81-.95s-2.62.33-3.75.99c-1.14.66-2.03,1.6-2.69,2.82-.66,1.22-.99,2.64-.99,4.25s.33,3.03.99,4.25c.66,1.22,1.56,2.16,2.69,2.82,1.14.66,2.39.99,3.75.99s2.69-.32,3.81-.97c1.12-.65,2.01-1.59,2.66-2.82.65-1.23.97-2.67.97-4.3s-.32-3.1-.97-4.3Z"/>
    <path class="cls-1" d="M451.95,84.98c-.37-.37-.55-.82-.55-1.36s.18-.98.55-1.34c.37-.35.81-.53,1.32-.53s.95.18,1.32.53.55.8.55,1.34-.18.99-.55,1.36-.81.55-1.32.55-.95-.18-1.32-.55ZM454.55,89.3v20h-2.56v-20h2.56Z"/>
    <path class="cls-1" d="M460.43,93.86c.82-1.55,1.95-2.75,3.41-3.59,1.45-.84,3.1-1.26,4.93-1.26s3.55.44,4.93,1.32c1.38.88,2.37,2,2.99,3.37v-4.4h2.56v20h-2.56v-4.43c-.64,1.37-1.64,2.5-3.02,3.39-1.38.89-3.02,1.34-4.93,1.34s-3.44-.43-4.89-1.28c-1.45-.85-2.59-2.06-3.41-3.63-.82-1.56-1.23-3.37-1.23-5.42s.41-3.85,1.23-5.4ZM475.69,95.05c-.66-1.22-1.56-2.16-2.69-2.82-1.14-.66-2.39-.99-3.75-.99s-2.69.32-3.81.95c-1.12.64-2.01,1.56-2.66,2.77-.65,1.21-.97,2.64-.97,4.3s.32,3.07.97,4.3c.65,1.23,1.53,2.17,2.66,2.82s2.39.97,3.81.97,2.62-.33,3.75-.99c1.14-.66,2.03-1.6,2.69-2.82.66-1.22.99-2.64.99-4.25s-.33-3.03-.99-4.25Z"/>
  </g>
</svg>